<svg xmlns="http://www.w3.org/2000/svg" viewBox="0 0 24 24" fill="#2196F3">
  <path d="M13.5 2L4 9v12h16V9l-9.5-7zm-5 13.5c-.83 0-1.5-.67-1.5-1.5S7.17 12 8 12s1.5.67 1.5 1.5S8.83 14.5 8 14.5zm4 3c-1.38 0-2.5-1.12-2.5-2.5 0-.5.12-1 .34-1.46.34.08.7.14 1.16.14 2.76 0 5-2.24 5-5s-2.24-5-5-5-5 2.24-5 5c0 2.24 1.5 4.14 3.5 4.82v3.68c-2.24.78-5.08 1.1-8 1.1 1.38 1.38 3.18 2.32 5.24 2.68 2.06.36 4.26.54 6.5.54 4.97 0 9-4.03 9-9s-4.03-9-9-9-9 4.03-9 9 4.03 9 9 9c2.24 0 4.44-.18 6.5-.54 2.06-.36 3.86-1.3 5.24-2.68-2.22.54-4.54.82-7 .82z"/>
</svg>
